<?xml version="1.0" standalone="no"?>
<!DOCTYPE svg PUBLIC "-//W3C//DTD SVG 20010904//EN"
 "http://www.w3.org/TR/2001/REC-SVG-20010904/DTD/svg10.dtd">
<svg version="1.0" xmlns="http://www.w3.org/2000/svg"
 width="406.000000pt" height="406.000000pt" viewBox="0 0 406.000000 406.000000"
 preserveAspectRatio="xMidYMid meet">
<metadata>
Created by potrace 1.14, written by Peter Selinger 2001-2017
</metadata>
<g transform="translate(0.000000,406.000000) scale(0.100000,-0.100000)"
fill="#000000" stroke="none">
<path d="M1130 3975 c-1 -33 -2 -80 -2 -105 -1 -60 11 -299 17 -330 2 -14 7
-50 10 -80 3 -30 8 -67 10 -81 4 -36 46 -200 55 -218 4 -9 22 -52 40 -96 75
-182 202 -353 339 -457 31 -24 58 -45 61 -48 10 -11 158 -106 310 -198 85 -52
162 -100 171 -108 8 -8 21 -14 28 -14 12 0 208 127 259 167 l23 19 -19 61
c-41 131 -134 257 -269 365 -37 29 -151 108 -253 175 -251 165 -283 188 -362
262 -92 86 -109 121 -22 45 55 -48 302 -214 319 -214 7 0 323 -195 357 -220
65 -48 203 -196 236 -252 19 -31 44 -83 57 -114 l23 -57 70 69 c39 38 84 86
101 107 l30 39 -28 56 c-66 130 -245 298 -448 420 -56 34 -104 62 -106 62 -4
0 -175 80 -322 150 -171 83 -355 212 -486 340 -94 94 -124 139 -187 290 -9 22
-11 17 -12 -35z"/>
<path d="M2907 3010 c-13 -109 -96 -265 -211 -394 -161 -183 -326 -307 -621
-466 -218 -118 -317 -175 -430 -249 -55 -36 -102 -67 -105 -70 -3 -4 -31 -26
-63 -51 -135 -102 -262 -258 -306 -374 -70 -188 -49 -453 52 -653 45 -87 129
-204 200 -276 18 -18 19 -18 14 0 -26 86 -30 124 -30 233 -1 136 13 204 65
319 57 128 153 247 286 353 73 58 134 95 387 238 626 353 846 618 840 1010 -2
111 -11 202 -25 260 -5 19 -11 46 -14 60 -21 120 -30 135 -39 60z"/>
<path d="M2350 1704 c-30 -19 -55 -38 -55 -42 0 -5 34 -37 75 -72 171 -145
307 -309 356 -430 29 -71 39 -182 23 -260 -26 -135 -152 -319 -328 -480 -47
-44 -169 -133 -219 -161 -31 -18 -64 -37 -72 -44 -8 -6 -69 -35 -135 -64 -66
-29 -122 -55 -125 -58 -20 -21 267 47 400 94 308 109 580 346 672 585 27 73
29 81 35 176 14 220 -107 435 -367 651 -51 42 -192 141 -201 141 -2 0 -29 -16
-59 -36z"/>
<path d="M2390 1401 c-14 -28 -44 -34 -77 -18 -25 13 -30 13 -43 -1 -8 -9 -13
-28 -12 -42 2 -15 -4 -33 -15 -42 -17 -16 -22 -18 -43 -18 -19 0 -11 -55 10
-68 23 -14 26 -43 8 -71 -17 -28 5 -52 46 -48 26 2 33 -3 46 -30 21 -44 55
-51 85 -18 28 29 42 31 67 8 17 -15 19 -15 36 0 12 11 17 27 14 45 -2 19 3 33
18 47 12 11 24 19 26 18 30 -19 37 31 8 56 -25 22 -31 60 -13 78 17 17 -7 54
-34 52 -44 -4 -57 1 -63 26 -5 22 -30 45 -48 45 -3 0 -10 -9 -16 -19z m33
-110 c16 -2 45 -63 39 -84 -8 -37 -43 -67 -77 -67 -69 0 -104 91 -52 136 24
21 38 23 90 15z"/>
<path d="M1870 1040 c-5 -3 -13 -24 -18 -45 -5 -27 -15 -43 -30 -50 -12 -5
-22 -13 -22 -18 0 -5 -24 -6 -52 -2 -53 6 -53 6 -72 -29 l-19 -35 27 -31 c20
-25 24 -36 16 -50 -6 -10 -10 -28 -10 -38 0 -12 -14 -28 -36 -41 -34 -20 -36
-24 -29 -59 9 -46 28 -59 80 -53 6 0 20 -15 33 -33 20 -29 22 -42 17 -79 -6
-38 -4 -45 12 -50 10 -4 25 -12 34 -18 14 -10 22 -8 49 13 29 22 37 24 71 15
28 -7 45 -19 60 -44 20 -32 24 -34 58 -28 49 9 51 11 51 50 0 27 7 39 33 59
28 21 40 25 79 20 43 -5 46 -4 65 29 l21 34 -25 32 c-35 44 -25 102 22 131 31
19 32 23 25 56 -11 48 -13 50 -62 53 -14 1 -32 15 -46 37 -21 31 -22 42 -14
75 9 37 9 39 -28 63 -34 22 -40 23 -51 10 -22 -27 -50 -36 -90 -29 -30 5 -43
14 -55 36 -13 25 -20 29 -50 27 -19 -1 -39 -5 -44 -8z m170 -211 c100 -56 90
-200 -17 -245 -42 -18 -67 -18 -109 2 -44 21 -74 63 -78 111 -4 55 11 91 54
122 48 35 99 38 150 10z"/>
</g>
</svg>
